<mxfile host="app.diagrams.net" agent="Mozilla/5.0 (Windows NT 10.0; Win64; x64) AppleWebKit/537.36 (KHTML, like Gecko) Chrome/129.0.0.0 Safari/537.36" version="24.7.16" pages="3">
  <diagram name="Data-Scientist" id="KrwdMXjqR05sIHVFj144">
    <mxGraphModel dx="1434" dy="738" grid="0" gridSize="13" guides="1" tooltips="1" connect="1" arrows="1" fold="1" page="1" pageScale="1" pageWidth="850" pageHeight="1100" background="#ffffff" math="0" shadow="0">
      <root>
        <mxCell id="0" />
        <mxCell id="1" parent="0" />
        <mxCell id="rRF0ZKCwoQjGDH0xGObH-5" value="Data scientist" style="shape=umlActor;html=1;verticalLabelPosition=bottom;verticalAlign=top;align=center;" parent="1" vertex="1">
          <mxGeometry x="52" y="648" width="30" height="60" as="geometry" />
        </mxCell>
        <mxCell id="hO0jAqk_koE7Ay9bM8tw-2" value="ETL service" style="swimlane;whiteSpace=wrap;html=1;" parent="1" vertex="1">
          <mxGeometry x="195" y="10" width="1352" height="1079" as="geometry" />
        </mxCell>
        <mxCell id="hO0jAqk_koE7Ay9bM8tw-21" value="Unify data(to a specific format)" style="ellipse;whiteSpace=wrap;html=1;" parent="hO0jAqk_koE7Ay9bM8tw-2" vertex="1">
          <mxGeometry x="1204" y="78" width="140" height="70" as="geometry" />
        </mxCell>
        <mxCell id="hO0jAqk_koE7Ay9bM8tw-16" value="&lt;br&gt;Unify data;&lt;div&gt;Save metadata;&lt;/div&gt;" style="html=1;shape=mxgraph.sysml.useCaseExtPt;whiteSpace=wrap;align=center;" parent="hO0jAqk_koE7Ay9bM8tw-2" vertex="1">
          <mxGeometry x="957" y="117" width="160" height="80" as="geometry" />
        </mxCell>
        <mxCell id="hO0jAqk_koE7Ay9bM8tw-17" value="Extract data" style="resizable=0;html=1;verticalAlign=middle;align=center;labelBackgroundColor=none;fontStyle=1;" parent="hO0jAqk_koE7Ay9bM8tw-16" connectable="0" vertex="1">
          <mxGeometry x="80" y="17" as="geometry">
            <mxPoint y="2" as="offset" />
          </mxGeometry>
        </mxCell>
        <mxCell id="hO0jAqk_koE7Ay9bM8tw-22" value="Save metadata" style="ellipse;whiteSpace=wrap;html=1;" parent="hO0jAqk_koE7Ay9bM8tw-2" vertex="1">
          <mxGeometry x="1204" y="176" width="140" height="70" as="geometry" />
        </mxCell>
        <mxCell id="hO0jAqk_koE7Ay9bM8tw-23" value="&amp;lt;&amp;lt;extend&amp;gt;&amp;gt;" style="edgeStyle=none;html=1;startArrow=open;endArrow=none;startSize=12;verticalAlign=bottom;dashed=1;labelBackgroundColor=none;rounded=0;exitX=1.004;exitY=0.645;exitDx=0;exitDy=0;exitPerimeter=0;entryX=0;entryY=0.5;entryDx=0;entryDy=0;" parent="hO0jAqk_koE7Ay9bM8tw-2" source="hO0jAqk_koE7Ay9bM8tw-16" target="hO0jAqk_koE7Ay9bM8tw-22" edge="1">
          <mxGeometry width="160" relative="1" as="geometry">
            <mxPoint x="1126" y="241" as="sourcePoint" />
            <mxPoint x="1286" y="241" as="targetPoint" />
          </mxGeometry>
        </mxCell>
        <mxCell id="hO0jAqk_koE7Ay9bM8tw-24" value="&amp;lt;&amp;lt;extend&amp;gt;&amp;gt;" style="edgeStyle=none;html=1;startArrow=open;endArrow=none;startSize=12;verticalAlign=bottom;dashed=1;labelBackgroundColor=none;rounded=0;entryX=0;entryY=0.5;entryDx=0;entryDy=0;exitX=0.988;exitY=0.281;exitDx=0;exitDy=0;exitPerimeter=0;" parent="hO0jAqk_koE7Ay9bM8tw-2" source="hO0jAqk_koE7Ay9bM8tw-16" edge="1">
          <mxGeometry width="160" relative="1" as="geometry">
            <mxPoint x="1048" y="85" as="sourcePoint" />
            <mxPoint x="1203.999999999994" y="120" as="targetPoint" />
          </mxGeometry>
        </mxCell>
        <mxCell id="hO0jAqk_koE7Ay9bM8tw-25" value="&lt;div&gt;Apply cleansing rules;&lt;/div&gt;&lt;div&gt;Highlight errors;&lt;/div&gt;" style="html=1;shape=mxgraph.sysml.useCaseExtPt;whiteSpace=wrap;align=center;" parent="hO0jAqk_koE7Ay9bM8tw-2" vertex="1">
          <mxGeometry x="949" y="269" width="160" height="93" as="geometry" />
        </mxCell>
        <mxCell id="hO0jAqk_koE7Ay9bM8tw-26" value="Cleanse data" style="resizable=0;html=1;verticalAlign=middle;align=center;labelBackgroundColor=none;fontStyle=1;" parent="hO0jAqk_koE7Ay9bM8tw-25" connectable="0" vertex="1">
          <mxGeometry x="80" y="19.762500000000003" as="geometry">
            <mxPoint y="2" as="offset" />
          </mxGeometry>
        </mxCell>
        <mxCell id="hO0jAqk_koE7Ay9bM8tw-27" value="Apply cleansing rules" style="ellipse;whiteSpace=wrap;html=1;" parent="hO0jAqk_koE7Ay9bM8tw-2" vertex="1">
          <mxGeometry x="1196" y="256" width="140" height="70" as="geometry" />
        </mxCell>
        <mxCell id="hO0jAqk_koE7Ay9bM8tw-28" value="Highlight errors" style="ellipse;whiteSpace=wrap;html=1;" parent="hO0jAqk_koE7Ay9bM8tw-2" vertex="1">
          <mxGeometry x="1196" y="347" width="140" height="70" as="geometry" />
        </mxCell>
        <mxCell id="hO0jAqk_koE7Ay9bM8tw-29" value="&amp;lt;&amp;lt;extend&amp;gt;&amp;gt;" style="edgeStyle=none;html=1;startArrow=open;endArrow=none;startSize=12;verticalAlign=bottom;dashed=1;labelBackgroundColor=none;rounded=0;exitX=1;exitY=0.5;exitDx=0;exitDy=0;exitPerimeter=0;entryX=0;entryY=0.5;entryDx=0;entryDy=0;" parent="hO0jAqk_koE7Ay9bM8tw-2" source="hO0jAqk_koE7Ay9bM8tw-25" target="hO0jAqk_koE7Ay9bM8tw-27" edge="1">
          <mxGeometry width="160" relative="1" as="geometry">
            <mxPoint x="1110" y="284" as="sourcePoint" />
            <mxPoint x="1196" y="326" as="targetPoint" />
          </mxGeometry>
        </mxCell>
        <mxCell id="hO0jAqk_koE7Ay9bM8tw-30" value="&amp;lt;&amp;lt;extend&amp;gt;&amp;gt;" style="edgeStyle=none;html=1;startArrow=open;endArrow=none;startSize=12;verticalAlign=bottom;dashed=1;labelBackgroundColor=none;rounded=0;entryX=0;entryY=0.5;entryDx=0;entryDy=0;exitX=0.982;exitY=0.635;exitDx=0;exitDy=0;exitPerimeter=0;" parent="hO0jAqk_koE7Ay9bM8tw-2" source="hO0jAqk_koE7Ay9bM8tw-25" target="hO0jAqk_koE7Ay9bM8tw-28" edge="1">
          <mxGeometry width="160" relative="1" as="geometry">
            <mxPoint x="1105" y="321" as="sourcePoint" />
            <mxPoint x="1165" y="389" as="targetPoint" />
          </mxGeometry>
        </mxCell>
        <mxCell id="hO0jAqk_koE7Ay9bM8tw-31" value="Protect PII" style="html=1;shape=mxgraph.sysml.useCaseExtPt;whiteSpace=wrap;align=center;" parent="hO0jAqk_koE7Ay9bM8tw-2" vertex="1">
          <mxGeometry x="949" y="426.5" width="160" height="93" as="geometry" />
        </mxCell>
        <mxCell id="hO0jAqk_koE7Ay9bM8tw-32" value="Anonymize data" style="resizable=0;html=1;verticalAlign=middle;align=center;labelBackgroundColor=none;fontStyle=1;" parent="hO0jAqk_koE7Ay9bM8tw-31" connectable="0" vertex="1">
          <mxGeometry x="80" y="19.762500000000003" as="geometry">
            <mxPoint x="-2" as="offset" />
          </mxGeometry>
        </mxCell>
        <mxCell id="hO0jAqk_koE7Ay9bM8tw-33" value="Protect PII" style="ellipse;whiteSpace=wrap;html=1;" parent="hO0jAqk_koE7Ay9bM8tw-2" vertex="1">
          <mxGeometry x="1204" y="438" width="140" height="70" as="geometry" />
        </mxCell>
        <mxCell id="hO0jAqk_koE7Ay9bM8tw-35" value="&amp;lt;&amp;lt;extend&amp;gt;&amp;gt;" style="edgeStyle=none;html=1;startArrow=open;endArrow=none;startSize=12;verticalAlign=bottom;dashed=1;labelBackgroundColor=none;rounded=0;exitX=1;exitY=0.5;exitDx=0;exitDy=0;exitPerimeter=0;entryX=0;entryY=0.5;entryDx=0;entryDy=0;" parent="hO0jAqk_koE7Ay9bM8tw-2" source="hO0jAqk_koE7Ay9bM8tw-31" target="hO0jAqk_koE7Ay9bM8tw-33" edge="1">
          <mxGeometry width="160" relative="1" as="geometry">
            <mxPoint x="1118" y="466" as="sourcePoint" />
            <mxPoint x="1204" y="508" as="targetPoint" />
          </mxGeometry>
        </mxCell>
        <mxCell id="hO0jAqk_koE7Ay9bM8tw-37" value="&lt;div&gt;Apply transformation logic;&lt;/div&gt;&lt;div&gt;Configure/change business logic;&lt;/div&gt;" style="html=1;shape=mxgraph.sysml.useCaseExtPt;whiteSpace=wrap;align=center;" parent="hO0jAqk_koE7Ay9bM8tw-2" vertex="1">
          <mxGeometry x="940" y="542" width="182" height="119" as="geometry" />
        </mxCell>
        <mxCell id="hO0jAqk_koE7Ay9bM8tw-38" value="Transform data" style="resizable=0;html=1;verticalAlign=middle;align=center;labelBackgroundColor=none;fontStyle=1;" parent="hO0jAqk_koE7Ay9bM8tw-37" connectable="0" vertex="1">
          <mxGeometry x="91" y="25.2875" as="geometry">
            <mxPoint y="2" as="offset" />
          </mxGeometry>
        </mxCell>
        <mxCell id="hO0jAqk_koE7Ay9bM8tw-39" value="&lt;div&gt;Apply transformation logic&lt;/div&gt;" style="ellipse;whiteSpace=wrap;html=1;" parent="hO0jAqk_koE7Ay9bM8tw-2" vertex="1">
          <mxGeometry x="1196" y="542" width="140" height="70" as="geometry" />
        </mxCell>
        <mxCell id="hO0jAqk_koE7Ay9bM8tw-40" value="Configure/change business logic" style="ellipse;whiteSpace=wrap;html=1;" parent="hO0jAqk_koE7Ay9bM8tw-2" vertex="1">
          <mxGeometry x="1196" y="633" width="140" height="70" as="geometry" />
        </mxCell>
        <mxCell id="hO0jAqk_koE7Ay9bM8tw-41" value="&amp;lt;&amp;lt;extend&amp;gt;&amp;gt;" style="edgeStyle=none;html=1;startArrow=open;endArrow=none;startSize=12;verticalAlign=bottom;dashed=1;labelBackgroundColor=none;rounded=0;exitX=1;exitY=0.5;exitDx=0;exitDy=0;exitPerimeter=0;entryX=0;entryY=0.5;entryDx=0;entryDy=0;" parent="hO0jAqk_koE7Ay9bM8tw-2" source="hO0jAqk_koE7Ay9bM8tw-37" target="hO0jAqk_koE7Ay9bM8tw-39" edge="1">
          <mxGeometry x="-0.0045" width="160" relative="1" as="geometry">
            <mxPoint x="1110" y="570" as="sourcePoint" />
            <mxPoint x="1196" y="612" as="targetPoint" />
            <mxPoint as="offset" />
          </mxGeometry>
        </mxCell>
        <mxCell id="hO0jAqk_koE7Ay9bM8tw-42" value="&amp;lt;&amp;lt;extend&amp;gt;&amp;gt;" style="edgeStyle=none;html=1;startArrow=open;endArrow=none;startSize=12;verticalAlign=bottom;dashed=1;labelBackgroundColor=none;rounded=0;entryX=0;entryY=0.5;entryDx=0;entryDy=0;exitX=0.982;exitY=0.635;exitDx=0;exitDy=0;exitPerimeter=0;" parent="hO0jAqk_koE7Ay9bM8tw-2" source="hO0jAqk_koE7Ay9bM8tw-37" target="hO0jAqk_koE7Ay9bM8tw-40" edge="1">
          <mxGeometry width="160" relative="1" as="geometry">
            <mxPoint x="1105" y="607" as="sourcePoint" />
            <mxPoint x="1165" y="675" as="targetPoint" />
          </mxGeometry>
        </mxCell>
        <mxCell id="hO0jAqk_koE7Ay9bM8tw-43" value="&lt;div&gt;&lt;span style=&quot;background-color: initial; white-space-collapse: preserve;&quot;&gt;Comparing data &lt;/span&gt;&lt;span style=&quot;background-color: initial; white-space-collapse: preserve;&quot;&gt;from multiple &lt;/span&gt;&lt;span style=&quot;background-color: initial; white-space-collapse: preserve;&quot;&gt;sources&lt;/span&gt;;&lt;/div&gt;&lt;div&gt;&lt;span style=&quot;background-color: initial; white-space-collapse: preserve;&quot;&gt;Ensuring data &lt;/span&gt;&lt;span style=&quot;background-color: initial; white-space-collapse: preserve;&quot;&gt;integrity&lt;/span&gt;;&lt;/div&gt;" style="html=1;shape=mxgraph.sysml.useCaseExtPt;whiteSpace=wrap;align=center;" parent="hO0jAqk_koE7Ay9bM8tw-2" vertex="1">
          <mxGeometry x="941" y="683" width="177" height="152" as="geometry" />
        </mxCell>
        <mxCell id="hO0jAqk_koE7Ay9bM8tw-44" value="Merged data" style="resizable=0;html=1;verticalAlign=middle;align=center;labelBackgroundColor=none;fontStyle=1;" parent="hO0jAqk_koE7Ay9bM8tw-43" connectable="0" vertex="1">
          <mxGeometry x="88.5" y="32.300000000000004" as="geometry">
            <mxPoint y="2" as="offset" />
          </mxGeometry>
        </mxCell>
        <mxCell id="hO0jAqk_koE7Ay9bM8tw-45" value="&amp;lt;&amp;lt;extend&amp;gt;&amp;gt;" style="edgeStyle=none;html=1;startArrow=open;endArrow=none;startSize=12;verticalAlign=bottom;dashed=1;labelBackgroundColor=none;rounded=0;exitX=0.984;exitY=0.376;exitDx=0;exitDy=0;exitPerimeter=0;entryX=0;entryY=0.5;entryDx=0;entryDy=0;" parent="hO0jAqk_koE7Ay9bM8tw-2" source="hO0jAqk_koE7Ay9bM8tw-43" target="hO0jAqk_koE7Ay9bM8tw-47" edge="1">
          <mxGeometry x="-0.0045" width="160" relative="1" as="geometry">
            <mxPoint x="1118" y="749" as="sourcePoint" />
            <mxPoint x="1209" y="737" as="targetPoint" />
            <mxPoint as="offset" />
          </mxGeometry>
        </mxCell>
        <mxCell id="hO0jAqk_koE7Ay9bM8tw-46" value="&amp;lt;&amp;lt;extend&amp;gt;&amp;gt;" style="edgeStyle=none;html=1;startArrow=open;endArrow=none;startSize=12;verticalAlign=bottom;dashed=1;labelBackgroundColor=none;rounded=0;exitX=0.981;exitY=0.61;exitDx=0;exitDy=0;exitPerimeter=0;" parent="hO0jAqk_koE7Ay9bM8tw-2" source="hO0jAqk_koE7Ay9bM8tw-43" target="hO0jAqk_koE7Ay9bM8tw-48" edge="1">
          <mxGeometry width="160" relative="1" as="geometry">
            <mxPoint x="1122" y="767" as="sourcePoint" />
            <mxPoint x="1196" y="789" as="targetPoint" />
          </mxGeometry>
        </mxCell>
        <mxCell id="hO0jAqk_koE7Ay9bM8tw-47" value="&lt;span style=&quot;white-space-collapse: preserve; background-color: initial;&quot;&gt;Comparing data &lt;/span&gt;&lt;span style=&quot;white-space-collapse: preserve; background-color: initial;&quot;&gt;from multiple &lt;/span&gt;&lt;span style=&quot;white-space-collapse: preserve; background-color: initial;&quot;&gt;sources&lt;/span&gt;" style="ellipse;whiteSpace=wrap;html=1;" parent="hO0jAqk_koE7Ay9bM8tw-2" vertex="1">
          <mxGeometry x="1196" y="716" width="140" height="70" as="geometry" />
        </mxCell>
        <mxCell id="hO0jAqk_koE7Ay9bM8tw-48" value="&lt;span style=&quot;white-space-collapse: preserve; background-color: initial;&quot;&gt;Ensuring data &lt;/span&gt;&lt;span style=&quot;white-space-collapse: preserve; background-color: initial;&quot;&gt;integrity&lt;/span&gt;" style="ellipse;whiteSpace=wrap;html=1;" parent="hO0jAqk_koE7Ay9bM8tw-2" vertex="1">
          <mxGeometry x="1196" y="789" width="140" height="70" as="geometry" />
        </mxCell>
        <mxCell id="hO0jAqk_koE7Ay9bM8tw-49" value="&lt;span style=&quot;white-space-collapse: preserve;&quot;&gt;Support for various &lt;/span&gt;&lt;span style=&quot;white-space-collapse: preserve;&quot;&gt;data stores &lt;/span&gt;" style="html=1;shape=mxgraph.sysml.useCaseExtPt;whiteSpace=wrap;align=center;" parent="hO0jAqk_koE7Ay9bM8tw-2" vertex="1">
          <mxGeometry x="949" y="891" width="160" height="93" as="geometry" />
        </mxCell>
        <mxCell id="hO0jAqk_koE7Ay9bM8tw-50" value="Export dataset" style="resizable=0;html=1;verticalAlign=middle;align=center;labelBackgroundColor=none;fontStyle=1;" parent="hO0jAqk_koE7Ay9bM8tw-49" connectable="0" vertex="1">
          <mxGeometry x="80" y="19.762500000000003" as="geometry">
            <mxPoint x="-2" as="offset" />
          </mxGeometry>
        </mxCell>
        <mxCell id="hO0jAqk_koE7Ay9bM8tw-51" value="&amp;lt;&amp;lt;extend&amp;gt;&amp;gt;" style="edgeStyle=none;html=1;startArrow=open;endArrow=none;startSize=12;verticalAlign=bottom;dashed=1;labelBackgroundColor=none;rounded=0;exitX=0.981;exitY=0.466;exitDx=0;exitDy=0;exitPerimeter=0;entryX=0;entryY=0.5;entryDx=0;entryDy=0;" parent="hO0jAqk_koE7Ay9bM8tw-2" source="hO0jAqk_koE7Ay9bM8tw-49" target="hO0jAqk_koE7Ay9bM8tw-52" edge="1">
          <mxGeometry width="160" relative="1" as="geometry">
            <mxPoint x="1128" y="917" as="sourcePoint" />
            <mxPoint x="1196" y="937" as="targetPoint" />
          </mxGeometry>
        </mxCell>
        <mxCell id="hO0jAqk_koE7Ay9bM8tw-52" value="&lt;span style=&quot;white-space-collapse: preserve;&quot;&gt;Support for various &lt;/span&gt;&lt;span style=&quot;white-space-collapse: preserve;&quot;&gt;data stores &lt;/span&gt;" style="ellipse;whiteSpace=wrap;html=1;" parent="hO0jAqk_koE7Ay9bM8tw-2" vertex="1">
          <mxGeometry x="1196" y="902.5" width="140" height="70" as="geometry" />
        </mxCell>
        <mxCell id="hO0jAqk_koE7Ay9bM8tw-54" value="&amp;lt;&amp;lt;extend&amp;gt;&amp;gt;" style="edgeStyle=none;html=1;startArrow=open;endArrow=none;startSize=12;verticalAlign=bottom;dashed=1;labelBackgroundColor=none;rounded=0;entryX=0;entryY=0.5;entryDx=0;entryDy=0;entryPerimeter=0;exitX=1;exitY=0;exitDx=0;exitDy=0;" parent="hO0jAqk_koE7Ay9bM8tw-2" target="hO0jAqk_koE7Ay9bM8tw-16" edge="1">
          <mxGeometry width="160" relative="1" as="geometry">
            <mxPoint x="661.4264068711832" y="528.2867965644084" as="sourcePoint" />
            <mxPoint x="927" y="306" as="targetPoint" />
          </mxGeometry>
        </mxCell>
        <mxCell id="hO0jAqk_koE7Ay9bM8tw-57" value="&amp;lt;&amp;lt;extend&amp;gt;&amp;gt;" style="edgeStyle=none;html=1;startArrow=open;endArrow=none;startSize=12;verticalAlign=bottom;dashed=1;labelBackgroundColor=none;rounded=0;entryX=0;entryY=0.5;entryDx=0;entryDy=0;entryPerimeter=0;exitX=0.964;exitY=0.724;exitDx=0;exitDy=0;exitPerimeter=0;" parent="hO0jAqk_koE7Ay9bM8tw-2" target="hO0jAqk_koE7Ay9bM8tw-37" edge="1">
          <mxGeometry width="160" relative="1" as="geometry">
            <mxPoint x="674.6799999999998" y="562.94" as="sourcePoint" />
            <mxPoint x="975" y="342" as="targetPoint" />
          </mxGeometry>
        </mxCell>
        <mxCell id="hO0jAqk_koE7Ay9bM8tw-59" value="&amp;lt;&amp;lt;extend&amp;gt;&amp;gt;" style="edgeStyle=none;html=1;startArrow=open;endArrow=none;startSize=12;verticalAlign=bottom;dashed=1;labelBackgroundColor=none;rounded=0;entryX=0;entryY=0.5;entryDx=0;entryDy=0;entryPerimeter=0;" parent="hO0jAqk_koE7Ay9bM8tw-2" target="hO0jAqk_koE7Ay9bM8tw-49" edge="1">
          <mxGeometry width="160" relative="1" as="geometry">
            <mxPoint x="642.5490042085567" y="577.092772608006" as="sourcePoint" />
            <mxPoint x="949" y="774" as="targetPoint" />
          </mxGeometry>
        </mxCell>
        <mxCell id="hO0jAqk_koE7Ay9bM8tw-55" value="&amp;lt;&amp;lt;extend&amp;gt;&amp;gt;" style="edgeStyle=none;html=1;startArrow=open;endArrow=none;startSize=12;verticalAlign=bottom;dashed=1;labelBackgroundColor=none;rounded=0;entryX=0;entryY=0.5;entryDx=0;entryDy=0;entryPerimeter=0;exitX=1;exitY=0;exitDx=0;exitDy=0;" parent="hO0jAqk_koE7Ay9bM8tw-2" target="hO0jAqk_koE7Ay9bM8tw-25" edge="1">
          <mxGeometry width="160" relative="1" as="geometry">
            <mxPoint x="661.4264068711832" y="528.2867965644084" as="sourcePoint" />
            <mxPoint x="996" y="222" as="targetPoint" />
          </mxGeometry>
        </mxCell>
        <mxCell id="hO0jAqk_koE7Ay9bM8tw-56" value="&amp;lt;&amp;lt;extend&amp;gt;&amp;gt;" style="edgeStyle=none;html=1;startArrow=open;endArrow=none;startSize=12;verticalAlign=bottom;dashed=1;labelBackgroundColor=none;rounded=0;entryX=0;entryY=0.5;entryDx=0;entryDy=0;entryPerimeter=0;exitX=1;exitY=0.5;exitDx=0;exitDy=0;" parent="hO0jAqk_koE7Ay9bM8tw-2" target="hO0jAqk_koE7Ay9bM8tw-31" edge="1">
          <mxGeometry width="160" relative="1" as="geometry">
            <mxPoint x="678.9999999999936" y="549.5" as="sourcePoint" />
            <mxPoint x="988" y="381" as="targetPoint" />
          </mxGeometry>
        </mxCell>
        <mxCell id="hO0jAqk_koE7Ay9bM8tw-58" value="&amp;lt;&amp;lt;extend&amp;gt;&amp;gt;" style="edgeStyle=none;html=1;startArrow=open;endArrow=none;startSize=12;verticalAlign=bottom;dashed=1;labelBackgroundColor=none;rounded=0;exitX=1;exitY=1;exitDx=0;exitDy=0;entryX=0;entryY=0.5;entryDx=0;entryDy=0;entryPerimeter=0;" parent="hO0jAqk_koE7Ay9bM8tw-2" target="hO0jAqk_koE7Ay9bM8tw-43" edge="1">
          <mxGeometry width="160" relative="1" as="geometry">
            <mxPoint x="661.4264068711832" y="570.7132034355918" as="sourcePoint" />
            <mxPoint x="962" y="813" as="targetPoint" />
          </mxGeometry>
        </mxCell>
        <mxCell id="hO0jAqk_koE7Ay9bM8tw-62" value="&amp;lt;&amp;lt;extend&amp;gt;&amp;gt;" style="edgeStyle=none;html=1;startArrow=open;endArrow=none;startSize=12;verticalAlign=bottom;dashed=1;labelBackgroundColor=none;rounded=0;exitX=1;exitY=0.5;exitDx=0;exitDy=0;" parent="hO0jAqk_koE7Ay9bM8tw-2" edge="1">
          <mxGeometry width="160" relative="1" as="geometry">
            <mxPoint x="693" y="942.5" as="sourcePoint" />
            <mxPoint x="949" y="943" as="targetPoint" />
          </mxGeometry>
        </mxCell>
        <mxCell id="hO0jAqk_koE7Ay9bM8tw-65" value="LogIn" style="ellipse;whiteSpace=wrap;html=1;" parent="hO0jAqk_koE7Ay9bM8tw-2" vertex="1">
          <mxGeometry x="78" y="633" width="140" height="70" as="geometry" />
        </mxCell>
        <mxCell id="hO0jAqk_koE7Ay9bM8tw-67" value="Manage job&amp;nbsp;" style="ellipse;whiteSpace=wrap;html=1;" parent="hO0jAqk_koE7Ay9bM8tw-2" vertex="1">
          <mxGeometry x="546" y="508" width="140" height="70" as="geometry" />
        </mxCell>
        <mxCell id="hO0jAqk_koE7Ay9bM8tw-68" value="Preview dataset" style="ellipse;whiteSpace=wrap;html=1;" parent="hO0jAqk_koE7Ay9bM8tw-2" vertex="1">
          <mxGeometry x="559" y="902.5" width="140" height="70" as="geometry" />
        </mxCell>
        <mxCell id="hO0jAqk_koE7Ay9bM8tw-69" value="&amp;lt;&amp;lt;include&amp;gt;&amp;gt;" style="edgeStyle=none;html=1;endArrow=open;verticalAlign=bottom;dashed=1;labelBackgroundColor=none;rounded=0;exitX=0;exitY=0.5;exitDx=0;exitDy=0;entryX=1;entryY=0.5;entryDx=0;entryDy=0;" parent="hO0jAqk_koE7Ay9bM8tw-2" source="hO0jAqk_koE7Ay9bM8tw-67" target="hO0jAqk_koE7Ay9bM8tw-65" edge="1">
          <mxGeometry width="160" relative="1" as="geometry">
            <mxPoint x="455" y="731" as="sourcePoint" />
            <mxPoint x="615" y="731" as="targetPoint" />
          </mxGeometry>
        </mxCell>
        <mxCell id="hO0jAqk_koE7Ay9bM8tw-70" value="&amp;lt;&amp;lt;include&amp;gt;&amp;gt;" style="edgeStyle=none;html=1;endArrow=open;verticalAlign=bottom;dashed=1;labelBackgroundColor=none;rounded=0;entryX=1;entryY=1;entryDx=0;entryDy=0;exitX=0;exitY=0.5;exitDx=0;exitDy=0;" parent="hO0jAqk_koE7Ay9bM8tw-2" source="hO0jAqk_koE7Ay9bM8tw-68" target="hO0jAqk_koE7Ay9bM8tw-65" edge="1">
          <mxGeometry width="160" relative="1" as="geometry">
            <mxPoint x="299" y="900" as="sourcePoint" />
            <mxPoint x="459" y="900" as="targetPoint" />
          </mxGeometry>
        </mxCell>
        <mxCell id="hO0jAqk_koE7Ay9bM8tw-71" value="Watch available permissions" style="ellipse;whiteSpace=wrap;html=1;" parent="hO0jAqk_koE7Ay9bM8tw-2" vertex="1">
          <mxGeometry x="546" y="703" width="140" height="70" as="geometry" />
        </mxCell>
        <mxCell id="hO0jAqk_koE7Ay9bM8tw-72" value="&amp;lt;&amp;lt;include&amp;gt;&amp;gt;" style="edgeStyle=none;html=1;endArrow=open;verticalAlign=bottom;dashed=1;labelBackgroundColor=none;rounded=0;entryX=0.924;entryY=0.696;entryDx=0;entryDy=0;entryPerimeter=0;exitX=0;exitY=0.5;exitDx=0;exitDy=0;" parent="hO0jAqk_koE7Ay9bM8tw-2" source="hO0jAqk_koE7Ay9bM8tw-71" target="hO0jAqk_koE7Ay9bM8tw-65" edge="1">
          <mxGeometry width="160" relative="1" as="geometry">
            <mxPoint x="338" y="731" as="sourcePoint" />
            <mxPoint x="498" y="731" as="targetPoint" />
          </mxGeometry>
        </mxCell>
        <mxCell id="g-k_E0FFjkNv1cSziLb6-1" value="" style="edgeStyle=none;html=1;endArrow=none;verticalAlign=bottom;rounded=0;entryX=0;entryY=0.5;entryDx=0;entryDy=0;exitX=0.5;exitY=0.5;exitDx=0;exitDy=0;exitPerimeter=0;" parent="1" source="rRF0ZKCwoQjGDH0xGObH-5" target="hO0jAqk_koE7Ay9bM8tw-65" edge="1">
          <mxGeometry width="160" relative="1" as="geometry">
            <mxPoint x="114" y="612" as="sourcePoint" />
            <mxPoint x="290" y="780" as="targetPoint" />
          </mxGeometry>
        </mxCell>
      </root>
    </mxGraphModel>
  </diagram>
  <diagram id="yQyzeM1UDtVje83lrVDW" name="DevOps">
    <mxGraphModel grid="0" page="1" gridSize="13" guides="1" tooltips="1" connect="1" arrows="1" fold="1" pageScale="1" pageWidth="850" pageHeight="1100" math="0" shadow="0">
      <root>
        <mxCell id="0" />
        <mxCell id="1" parent="0" />
        <mxCell id="ymtNEwK83slNwbAoZxoE-66" style="edgeStyle=orthogonalEdgeStyle;rounded=0;orthogonalLoop=1;jettySize=auto;html=1;entryX=0;entryY=0.5;entryDx=0;entryDy=0;endArrow=none;endFill=0;" edge="1" parent="1" source="tdPWRTR1kyHA7L-s0Mpk-1" target="ymtNEwK83slNwbAoZxoE-49">
          <mxGeometry relative="1" as="geometry" />
        </mxCell>
        <mxCell id="ymtNEwK83slNwbAoZxoE-67" style="edgeStyle=orthogonalEdgeStyle;rounded=0;orthogonalLoop=1;jettySize=auto;html=1;entryX=0;entryY=0.5;entryDx=0;entryDy=0;endArrow=none;endFill=0;" edge="1" parent="1" source="tdPWRTR1kyHA7L-s0Mpk-1" target="ymtNEwK83slNwbAoZxoE-55">
          <mxGeometry relative="1" as="geometry" />
        </mxCell>
        <mxCell id="tdPWRTR1kyHA7L-s0Mpk-1" value="DevOps" style="shape=umlActor;html=1;verticalLabelPosition=bottom;verticalAlign=top;align=center;" vertex="1" parent="1">
          <mxGeometry x="52" y="390" width="30" height="60" as="geometry" />
        </mxCell>
        <mxCell id="ymtNEwK83slNwbAoZxoE-48" value="ETL-service" style="swimlane;whiteSpace=wrap;html=1;" vertex="1" parent="1">
          <mxGeometry x="117" y="13" width="673" height="663" as="geometry" />
        </mxCell>
        <mxCell id="ymtNEwK83slNwbAoZxoE-49" value="Integrate service" style="ellipse;whiteSpace=wrap;html=1;" vertex="1" parent="ymtNEwK83slNwbAoZxoE-48">
          <mxGeometry x="143" y="247" width="140" height="70" as="geometry" />
        </mxCell>
        <mxCell id="ymtNEwK83slNwbAoZxoE-54" value="Watch service requirements for integration" style="ellipse;whiteSpace=wrap;html=1;" vertex="1" parent="ymtNEwK83slNwbAoZxoE-48">
          <mxGeometry x="390" y="247" width="140" height="70" as="geometry" />
        </mxCell>
        <mxCell id="ymtNEwK83slNwbAoZxoE-55" value="Configure service" style="ellipse;whiteSpace=wrap;html=1;" vertex="1" parent="ymtNEwK83slNwbAoZxoE-48">
          <mxGeometry x="143" y="467" width="140" height="70" as="geometry" />
        </mxCell>
        <mxCell id="ymtNEwK83slNwbAoZxoE-56" value="Configure dataset format" style="ellipse;whiteSpace=wrap;html=1;" vertex="1" parent="ymtNEwK83slNwbAoZxoE-48">
          <mxGeometry x="351" y="403" width="140" height="70" as="geometry" />
        </mxCell>
        <mxCell id="ymtNEwK83slNwbAoZxoE-57" value="Configure imported data" style="ellipse;whiteSpace=wrap;html=1;" vertex="1" parent="ymtNEwK83slNwbAoZxoE-48">
          <mxGeometry x="364" y="537" width="140" height="70" as="geometry" />
        </mxCell>
        <mxCell id="ymtNEwK83slNwbAoZxoE-61" value="&amp;lt;&amp;lt;extend&amp;gt;&amp;gt;" style="edgeStyle=none;html=1;startArrow=open;endArrow=none;startSize=12;verticalAlign=bottom;dashed=1;labelBackgroundColor=none;rounded=0;exitX=1;exitY=0.5;exitDx=0;exitDy=0;entryX=0;entryY=0.5;entryDx=0;entryDy=0;" edge="1" parent="ymtNEwK83slNwbAoZxoE-48" source="ymtNEwK83slNwbAoZxoE-55" target="ymtNEwK83slNwbAoZxoE-56">
          <mxGeometry width="160" relative="1" as="geometry">
            <mxPoint x="169" y="429" as="sourcePoint" />
            <mxPoint x="312" y="429" as="targetPoint" />
          </mxGeometry>
        </mxCell>
        <mxCell id="ymtNEwK83slNwbAoZxoE-62" value="&amp;lt;&amp;lt;extend&amp;gt;&amp;gt;" style="edgeStyle=none;html=1;startArrow=open;endArrow=none;startSize=12;verticalAlign=bottom;dashed=1;labelBackgroundColor=none;rounded=0;exitX=1;exitY=1;exitDx=0;exitDy=0;entryX=0;entryY=0.5;entryDx=0;entryDy=0;" edge="1" parent="ymtNEwK83slNwbAoZxoE-48" source="ymtNEwK83slNwbAoZxoE-55" target="ymtNEwK83slNwbAoZxoE-57">
          <mxGeometry width="160" relative="1" as="geometry">
            <mxPoint x="296" y="515" as="sourcePoint" />
            <mxPoint x="351" y="445" as="targetPoint" />
          </mxGeometry>
        </mxCell>
        <mxCell id="ymtNEwK83slNwbAoZxoE-63" value="&amp;lt;&amp;lt;include&amp;gt;&amp;gt;" style="edgeStyle=none;html=1;endArrow=open;verticalAlign=bottom;dashed=1;labelBackgroundColor=none;rounded=0;exitX=0;exitY=0.5;exitDx=0;exitDy=0;entryX=1;entryY=0.5;entryDx=0;entryDy=0;" edge="1" parent="ymtNEwK83slNwbAoZxoE-48" source="ymtNEwK83slNwbAoZxoE-54" target="ymtNEwK83slNwbAoZxoE-49">
          <mxGeometry width="160" relative="1" as="geometry">
            <mxPoint x="312" y="182" as="sourcePoint" />
            <mxPoint x="472" y="182" as="targetPoint" />
          </mxGeometry>
        </mxCell>
      </root>
    </mxGraphModel>
  </diagram>
  <diagram id="DhQgf9PP4bgsdCEHPLWl" name="Owner">
    <mxGraphModel grid="0" page="1" gridSize="13" guides="1" tooltips="1" connect="1" arrows="1" fold="1" pageScale="1" pageWidth="850" pageHeight="1100" math="0" shadow="0">
      <root>
        <mxCell id="0" />
        <mxCell id="1" parent="0" />
        <mxCell id="jWxNvhlnftxOXqwSKHVM-7" style="edgeStyle=orthogonalEdgeStyle;rounded=0;orthogonalLoop=1;jettySize=auto;html=1;endArrow=none;endFill=0;" edge="1" parent="1" target="jWxNvhlnftxOXqwSKHVM-2">
          <mxGeometry relative="1" as="geometry">
            <mxPoint x="117" y="169" as="sourcePoint" />
          </mxGeometry>
        </mxCell>
        <mxCell id="q90xarB683IJMGTzPxxl-1" value="Owner" style="shape=umlActor;html=1;verticalLabelPosition=bottom;verticalAlign=top;align=center;" vertex="1" parent="1">
          <mxGeometry x="78" y="221" width="30" height="60" as="geometry" />
        </mxCell>
        <mxCell id="jWxNvhlnftxOXqwSKHVM-1" value="ETL-service" style="swimlane;whiteSpace=wrap;html=1;" vertex="1" parent="1">
          <mxGeometry x="156" y="21" width="637" height="499" as="geometry" />
        </mxCell>
        <mxCell id="jWxNvhlnftxOXqwSKHVM-2" value="Log in" style="ellipse;whiteSpace=wrap;html=1;" vertex="1" parent="jWxNvhlnftxOXqwSKHVM-1">
          <mxGeometry x="39" y="195" width="140" height="70" as="geometry" />
        </mxCell>
        <mxCell id="jWxNvhlnftxOXqwSKHVM-4" value="Give permission to run a job" style="ellipse;whiteSpace=wrap;html=1;" vertex="1" parent="jWxNvhlnftxOXqwSKHVM-1">
          <mxGeometry x="429" y="31" width="140" height="70" as="geometry" />
        </mxCell>
        <mxCell id="jWxNvhlnftxOXqwSKHVM-5" value="&lt;div&gt;run a job;&lt;br&gt;&lt;/div&gt;&lt;div&gt;pause a job;&lt;br&gt;&lt;/div&gt;&lt;div&gt;turn off a job;&lt;br&gt;&lt;/div&gt;&lt;div&gt;get logs;&lt;br&gt;&lt;/div&gt;&lt;div&gt;&amp;nbsp;restart service&lt;br&gt;&lt;/div&gt;" style="html=1;shape=mxgraph.sysml.useCaseExtPt;whiteSpace=wrap;align=center;" vertex="1" parent="jWxNvhlnftxOXqwSKHVM-1">
          <mxGeometry x="179" y="36" width="198" height="229" as="geometry" />
        </mxCell>
        <mxCell id="jWxNvhlnftxOXqwSKHVM-6" value="Give permission" style="resizable=0;html=1;verticalAlign=middle;align=center;labelBackgroundColor=none;fontStyle=1;" connectable="0" vertex="1" parent="jWxNvhlnftxOXqwSKHVM-5">
          <mxGeometry x="99" y="48.6625" as="geometry" />
        </mxCell>
        <mxCell id="jWxNvhlnftxOXqwSKHVM-8" value="Watch logs" style="ellipse;whiteSpace=wrap;html=1;" vertex="1" parent="jWxNvhlnftxOXqwSKHVM-1">
          <mxGeometry x="179" y="330" width="140" height="70" as="geometry" />
        </mxCell>
        <mxCell id="jWxNvhlnftxOXqwSKHVM-9" value="Watch summary report" style="ellipse;whiteSpace=wrap;html=1;" vertex="1" parent="jWxNvhlnftxOXqwSKHVM-1">
          <mxGeometry x="91" y="429" width="140" height="70" as="geometry" />
        </mxCell>
        <mxCell id="jWxNvhlnftxOXqwSKHVM-10" value="&amp;lt;&amp;lt;include&amp;gt;&amp;gt;" style="edgeStyle=none;html=1;endArrow=open;verticalAlign=bottom;dashed=1;labelBackgroundColor=none;rounded=0;exitX=0;exitY=0.5;exitDx=0;exitDy=0;exitPerimeter=0;entryX=0.5;entryY=0;entryDx=0;entryDy=0;" edge="1" parent="jWxNvhlnftxOXqwSKHVM-1" source="jWxNvhlnftxOXqwSKHVM-5" target="jWxNvhlnftxOXqwSKHVM-2">
          <mxGeometry width="160" relative="1" as="geometry">
            <mxPoint x="-26" y="122" as="sourcePoint" />
            <mxPoint x="134" y="122" as="targetPoint" />
          </mxGeometry>
        </mxCell>
        <mxCell id="jWxNvhlnftxOXqwSKHVM-11" value="&amp;lt;&amp;lt;include&amp;gt;&amp;gt;" style="edgeStyle=none;html=1;endArrow=open;verticalAlign=bottom;dashed=1;labelBackgroundColor=none;rounded=0;exitX=0.004;exitY=0.623;exitDx=0;exitDy=0;exitPerimeter=0;" edge="1" parent="jWxNvhlnftxOXqwSKHVM-1" source="jWxNvhlnftxOXqwSKHVM-8" target="jWxNvhlnftxOXqwSKHVM-2">
          <mxGeometry width="160" relative="1" as="geometry">
            <mxPoint x="78" y="330" as="sourcePoint" />
            <mxPoint x="238" y="330" as="targetPoint" />
          </mxGeometry>
        </mxCell>
        <mxCell id="jWxNvhlnftxOXqwSKHVM-12" value="&amp;lt;&amp;lt;include&amp;gt;&amp;gt;" style="edgeStyle=none;html=1;endArrow=open;verticalAlign=bottom;dashed=1;labelBackgroundColor=none;rounded=0;exitX=0;exitY=0.5;exitDx=0;exitDy=0;entryX=0.5;entryY=1;entryDx=0;entryDy=0;" edge="1" parent="jWxNvhlnftxOXqwSKHVM-1" source="jWxNvhlnftxOXqwSKHVM-9" target="jWxNvhlnftxOXqwSKHVM-2">
          <mxGeometry width="160" relative="1" as="geometry">
            <mxPoint x="232" y="252" as="sourcePoint" />
            <mxPoint x="191" y="248" as="targetPoint" />
          </mxGeometry>
        </mxCell>
        <mxCell id="jWxNvhlnftxOXqwSKHVM-13" value="Give permission to pause a job" style="ellipse;whiteSpace=wrap;html=1;" vertex="1" parent="jWxNvhlnftxOXqwSKHVM-1">
          <mxGeometry x="429" y="112" width="140" height="70" as="geometry" />
        </mxCell>
        <mxCell id="jWxNvhlnftxOXqwSKHVM-14" value="Give permission to turn off a job" style="ellipse;whiteSpace=wrap;html=1;" vertex="1" parent="jWxNvhlnftxOXqwSKHVM-1">
          <mxGeometry x="442" y="195" width="140" height="70" as="geometry" />
        </mxCell>
        <mxCell id="jWxNvhlnftxOXqwSKHVM-15" value="Give permission to get logs" style="ellipse;whiteSpace=wrap;html=1;" vertex="1" parent="jWxNvhlnftxOXqwSKHVM-1">
          <mxGeometry x="429" y="278" width="140" height="70" as="geometry" />
        </mxCell>
        <mxCell id="jWxNvhlnftxOXqwSKHVM-16" value="Give permission to restart service" style="ellipse;whiteSpace=wrap;html=1;" vertex="1" parent="jWxNvhlnftxOXqwSKHVM-1">
          <mxGeometry x="429" y="361" width="140" height="70" as="geometry" />
        </mxCell>
        <mxCell id="jWxNvhlnftxOXqwSKHVM-18" value="&amp;lt;&amp;lt;include&amp;gt;&amp;gt;" style="edgeStyle=none;html=1;startArrow=open;endArrow=none;startSize=12;verticalAlign=bottom;dashed=1;labelBackgroundColor=none;rounded=0;entryX=0;entryY=0.5;entryDx=0;entryDy=0;exitX=0.943;exitY=0.225;exitDx=0;exitDy=0;exitPerimeter=0;" edge="1" parent="jWxNvhlnftxOXqwSKHVM-1" source="jWxNvhlnftxOXqwSKHVM-5" target="jWxNvhlnftxOXqwSKHVM-4">
          <mxGeometry width="160" relative="1" as="geometry">
            <mxPoint x="403" y="96" as="sourcePoint" />
            <mxPoint x="563" y="96" as="targetPoint" />
          </mxGeometry>
        </mxCell>
        <mxCell id="jWxNvhlnftxOXqwSKHVM-19" value="&amp;lt;&amp;lt;include&amp;gt;&amp;gt;" style="edgeStyle=none;html=1;startArrow=open;endArrow=none;startSize=12;verticalAlign=bottom;dashed=1;labelBackgroundColor=none;rounded=0;entryX=0;entryY=0.329;entryDx=0;entryDy=0;exitX=0.994;exitY=0.397;exitDx=0;exitDy=0;exitPerimeter=0;entryPerimeter=0;" edge="1" parent="jWxNvhlnftxOXqwSKHVM-1" source="jWxNvhlnftxOXqwSKHVM-5" target="jWxNvhlnftxOXqwSKHVM-13">
          <mxGeometry width="160" relative="1" as="geometry">
            <mxPoint x="379" y="101" as="sourcePoint" />
            <mxPoint x="442" y="79" as="targetPoint" />
          </mxGeometry>
        </mxCell>
        <mxCell id="jWxNvhlnftxOXqwSKHVM-36" value="&amp;lt;&amp;lt;include&amp;gt;&amp;gt;" style="edgeStyle=none;html=1;startArrow=open;endArrow=none;startSize=12;verticalAlign=bottom;dashed=1;labelBackgroundColor=none;rounded=0;entryX=0.036;entryY=0.269;entryDx=0;entryDy=0;exitX=1;exitY=0.5;exitDx=0;exitDy=0;exitPerimeter=0;entryPerimeter=0;" edge="1" parent="jWxNvhlnftxOXqwSKHVM-1" source="jWxNvhlnftxOXqwSKHVM-5" target="jWxNvhlnftxOXqwSKHVM-14">
          <mxGeometry width="160" relative="1" as="geometry">
            <mxPoint x="389" y="140" as="sourcePoint" />
            <mxPoint x="442" y="148" as="targetPoint" />
          </mxGeometry>
        </mxCell>
        <mxCell id="jWxNvhlnftxOXqwSKHVM-37" value="&amp;lt;&amp;lt;include&amp;gt;&amp;gt;" style="edgeStyle=none;html=1;startArrow=open;endArrow=none;startSize=12;verticalAlign=bottom;dashed=1;labelBackgroundColor=none;rounded=0;entryX=0.085;entryY=0.2;entryDx=0;entryDy=0;exitX=0.97;exitY=0.63;exitDx=0;exitDy=0;exitPerimeter=0;entryPerimeter=0;" edge="1" parent="jWxNvhlnftxOXqwSKHVM-1" source="jWxNvhlnftxOXqwSKHVM-5" target="jWxNvhlnftxOXqwSKHVM-15">
          <mxGeometry width="160" relative="1" as="geometry">
            <mxPoint x="402" y="153" as="sourcePoint" />
            <mxPoint x="455" y="161" as="targetPoint" />
          </mxGeometry>
        </mxCell>
        <mxCell id="jWxNvhlnftxOXqwSKHVM-38" value="&amp;lt;&amp;lt;include&amp;gt;&amp;gt;" style="edgeStyle=none;html=1;startArrow=open;endArrow=none;startSize=12;verticalAlign=bottom;dashed=1;labelBackgroundColor=none;rounded=0;entryX=0.036;entryY=0.349;entryDx=0;entryDy=0;exitX=0.79;exitY=0.918;exitDx=0;exitDy=0;exitPerimeter=0;entryPerimeter=0;" edge="1" parent="jWxNvhlnftxOXqwSKHVM-1" source="jWxNvhlnftxOXqwSKHVM-5" target="jWxNvhlnftxOXqwSKHVM-16">
          <mxGeometry width="160" relative="1" as="geometry">
            <mxPoint x="351" y="361" as="sourcePoint" />
            <mxPoint x="404" y="369" as="targetPoint" />
          </mxGeometry>
        </mxCell>
      </root>
    </mxGraphModel>
  </diagram>
</mxfile>
